<svg width="184" height="24" viewBox="0 0 184 24" fill="none" xmlns="http://www.w3.org/2000/svg">
<path d="M25.144 23H10.712C9.15467 23 7.74667 22.712 6.488 22.136C5.22933 21.56 4.14133 20.76 3.224 19.736C2.328 18.712 1.63467 17.528 1.144 16.184C0.653333 14.8187 0.408 13.3573 0.408 11.8C0.408 10.264 0.653333 8.824 1.144 7.48C1.63467 6.11467 2.328 4.92 3.224 3.896C4.14133 2.85067 5.22933 2.04 6.488 1.464C7.74667 0.887999 9.15467 0.599998 10.712 0.599998H25.144V3.8H10.712C9.24 3.8 7.97067 4.16267 6.904 4.888C5.85867 5.592 5.048 6.552 4.472 7.768C3.896 8.984 3.608 10.328 3.608 11.8C3.608 13.272 3.896 14.616 4.472 15.832C5.048 17.0267 5.85867 17.9867 6.904 18.712C7.97067 19.4373 9.24 19.8 10.712 19.8H25.144V23ZM47.1125 23H43.9125V15.832H33.3205V12.632H43.9125V5.4H47.1125V23ZM31.8165 23H28.6165V5.4H31.8165V23ZM72.4463 14.168C72.4463 15.7893 72.1049 17.272 71.4223 18.616C70.7609 19.9387 69.8223 21.0053 68.6063 21.816C67.3903 22.6053 65.9716 23 64.3503 23H58.7823C57.1609 23 55.7316 22.6053 54.4943 21.816C53.2783 21.0053 52.3289 19.9387 51.6463 18.616C50.9849 17.272 50.6543 15.7893 50.6543 14.168C50.6543 12.5467 50.9849 11.0747 51.6463 9.752C52.3289 8.42933 53.2783 7.37333 54.4943 6.584C55.7316 5.79467 57.1609 5.4 58.7823 5.4H64.3503C65.9716 5.4 67.3903 5.79467 68.6063 6.584C69.8223 7.37333 70.7609 8.42933 71.4223 9.752C72.1049 11.0747 72.4463 12.5467 72.4463 14.168ZM69.2463 14.168C69.2463 13.144 69.0543 12.2053 68.6703 11.352C68.2863 10.4987 67.7209 9.82667 66.9743 9.336C66.2489 8.824 65.3743 8.568 64.3503 8.568H58.7823C57.7583 8.568 56.8729 8.824 56.1263 9.336C55.4009 9.82667 54.8356 10.4987 54.4303 11.352C54.0463 12.2053 53.8543 13.144 53.8543 14.168C53.8543 15.192 54.0463 16.1307 54.4303 16.984C54.8356 17.8373 55.4009 18.52 56.1263 19.032C56.8729 19.544 57.7583 19.8 58.7823 19.8H64.3503C65.3743 19.8 66.2489 19.544 66.9743 19.032C67.7209 18.52 68.2863 17.8373 68.6703 16.984C69.0543 16.1307 69.2463 15.192 69.2463 14.168ZM98.3915 16.568C98.3915 17.7413 98.1035 18.8187 97.5275 19.8C96.9515 20.7813 96.1728 21.56 95.1915 22.136C94.2102 22.712 93.1222 23 91.9275 23C90.9888 23 90.1035 22.7973 89.2715 22.392C88.4608 21.9867 87.7568 21.4427 87.1595 20.76C86.5622 21.4427 85.8368 21.9867 84.9835 22.392C84.1302 22.7973 83.2128 23 82.2315 23C81.0582 23 79.9808 22.712 78.9995 22.136C78.0395 21.56 77.2608 20.7813 76.6635 19.8C76.0875 18.8187 75.7995 17.7413 75.7995 16.568V5.4H78.9995V16.568C78.9995 17.4853 79.3088 18.2533 79.9275 18.872C80.5675 19.4907 81.3355 19.8 82.2315 19.8C83.1488 19.8 83.9168 19.4907 84.5355 18.872C85.1755 18.2533 85.4955 17.4853 85.4955 16.568V5.4H88.7275V16.184C88.7275 17.1867 89.0368 18.04 89.6555 18.744C90.2742 19.448 91.0315 19.8 91.9275 19.8C92.8448 19.8 93.6128 19.4907 94.2315 18.872C94.8715 18.2533 95.1915 17.4853 95.1915 16.568V5.4H98.3915V16.568Z" fill="#578E7E"/>
<path d="M125.578 6.6875C125.578 6.875 125.573 7.06771 125.562 7.26562C125.562 7.45312 125.542 7.63542 125.5 7.8125C125.479 7.90625 125.432 8.01042 125.359 8.125C125.286 8.22917 125.198 8.33333 125.094 8.4375C125 8.53125 124.896 8.61458 124.781 8.6875C124.667 8.75 124.562 8.78125 124.469 8.78125C124.312 8.78125 124.214 8.71875 124.172 8.59375C124.13 8.46875 124.099 8.33333 124.078 8.1875C124.068 8.04167 124.036 7.90625 123.984 7.78125C123.943 7.65625 123.839 7.59375 123.672 7.59375C123.62 7.59375 123.573 7.60417 123.531 7.625C123.5 7.64583 123.458 7.65625 123.406 7.65625C123.385 7.65625 123.365 7.59375 123.344 7.46875C123.323 7.34375 123.297 7.19271 123.266 7.01562C123.234 6.83854 123.198 6.66146 123.156 6.48438C123.115 6.29688 123.068 6.14062 123.016 6.01562C122.922 5.81771 122.823 5.61458 122.719 5.40625C122.625 5.1875 122.578 4.95833 122.578 4.71875C122.578 4.55208 122.609 4.41146 122.672 4.29688C122.734 4.17188 122.802 4.05729 122.875 3.95312C122.948 3.84896 123.016 3.74479 123.078 3.64062C123.141 3.53646 123.172 3.41146 123.172 3.26562C123.172 3.05729 123.104 2.875 122.969 2.71875C122.833 2.5625 122.661 2.4375 122.453 2.34375C122.255 2.23958 122.042 2.16667 121.812 2.125C121.594 2.07292 121.401 2.04688 121.234 2.04688C120.953 2.04688 120.677 2.08333 120.406 2.15625C120.146 2.21875 119.88 2.29688 119.609 2.39062C119.349 2.48438 119.089 2.58333 118.828 2.6875C118.568 2.79167 118.307 2.88021 118.047 2.95312C118.099 3.09896 118.13 3.25 118.141 3.40625C118.161 3.5625 118.172 3.71875 118.172 3.875C118.172 4.22917 118.156 4.58333 118.125 4.9375C118.094 5.28125 118.078 5.63021 118.078 5.98438C118.078 6.36979 118.099 6.75521 118.141 7.14062C118.182 7.51562 118.224 7.89062 118.266 8.26562C118.318 8.64062 118.365 9.02083 118.406 9.40625C118.448 9.78125 118.469 10.1562 118.469 10.5312C118.469 10.9896 118.391 11.4375 118.234 11.875C118.203 11.9583 118.188 12.026 118.188 12.0781C118.188 12.1927 118.214 12.3073 118.266 12.4219C118.318 12.526 118.375 12.6406 118.438 12.7656C118.51 12.8802 118.573 13 118.625 13.125C118.677 13.25 118.703 13.3802 118.703 13.5156C118.703 13.6406 118.682 13.7604 118.641 13.875C118.599 13.9896 118.578 14.1042 118.578 14.2188C118.578 14.3854 118.599 14.5469 118.641 14.7031C118.693 14.8594 118.719 15.0208 118.719 15.1875C118.719 15.2812 118.693 15.3385 118.641 15.3594C118.599 15.3802 118.547 15.3906 118.484 15.3906C118.422 15.3906 118.365 15.3958 118.312 15.4062C118.271 15.4062 118.25 15.4323 118.25 15.4844C118.25 15.6406 118.281 15.7917 118.344 15.9375C118.417 16.0729 118.453 16.2188 118.453 16.375C118.453 16.5104 118.422 16.6406 118.359 16.7656C118.307 16.8802 118.281 17.0052 118.281 17.1406C118.281 17.276 118.339 17.3958 118.453 17.5C118.578 17.6042 118.667 17.7292 118.719 17.875C118.771 18.0521 118.812 18.2552 118.844 18.4844C118.885 18.7135 118.958 18.9323 119.062 19.1406C119.177 19.349 119.349 19.526 119.578 19.6719C119.807 19.8073 120.146 19.875 120.594 19.875H121.047C121.172 19.875 121.323 19.8854 121.5 19.9062C121.688 19.9271 121.865 19.9688 122.031 20.0312C122.208 20.0833 122.354 20.1667 122.469 20.2812C122.594 20.3854 122.656 20.5208 122.656 20.6875C122.656 20.8542 122.625 21.0156 122.562 21.1719C122.5 21.3281 122.469 21.4896 122.469 21.6562C122.469 21.7083 122.479 21.7865 122.5 21.8906C122.344 21.8906 122.203 21.9271 122.078 22C121.964 22.0625 121.88 22.1719 121.828 22.3281C121.62 22.2865 121.406 22.2604 121.188 22.25C120.979 22.2292 120.771 22.2188 120.562 22.2188C120.031 22.2188 119.505 22.2604 118.984 22.3438C118.464 22.4167 117.938 22.5 117.406 22.5938C116.885 22.6771 116.359 22.7604 115.828 22.8438C115.307 22.9167 114.781 22.9531 114.25 22.9531C114.073 22.9531 113.854 22.9479 113.594 22.9375C113.333 22.9271 113.083 22.8906 112.844 22.8281C112.604 22.7656 112.396 22.6719 112.219 22.5469C112.052 22.4115 111.969 22.2188 111.969 21.9688C111.969 21.6771 111.995 21.4635 112.047 21.3281C112.109 21.1823 112.182 21.0833 112.266 21.0312C112.349 20.9688 112.443 20.9323 112.547 20.9219C112.661 20.9115 112.771 20.8906 112.875 20.8594C112.906 20.8281 112.922 20.7969 112.922 20.7656C112.922 20.7135 112.896 20.6719 112.844 20.6406C112.802 20.599 112.755 20.5677 112.703 20.5469C112.88 20.3906 113.078 20.2812 113.297 20.2188C113.526 20.1562 113.755 20.1146 113.984 20.0938C114.224 20.0729 114.464 20.0521 114.703 20.0312C114.943 20.0104 115.167 19.9583 115.375 19.875C115.458 19.8438 115.547 19.7552 115.641 19.6094C115.734 19.4635 115.818 19.3021 115.891 19.125C115.974 18.9479 116.036 18.7708 116.078 18.5938C116.13 18.4167 116.156 18.2812 116.156 18.1875V18.1562C116.083 17.6562 116.026 17.1667 115.984 16.6875C115.943 16.2083 115.922 15.7188 115.922 15.2188C115.922 15.1771 115.938 15.1094 115.969 15.0156C116 14.9115 116.042 14.8073 116.094 14.7031C116.135 14.5885 116.193 14.4583 116.266 14.3125C116.182 14.1771 116.109 14.0521 116.047 13.9375C115.995 13.8333 115.948 13.7344 115.906 13.6406C115.865 13.5469 115.844 13.474 115.844 13.4219C115.844 13.2969 115.865 13.1771 115.906 13.0625C115.948 12.9479 115.979 12.8333 116 12.7188C116.062 12.2812 116.094 11.8385 116.094 11.3906C116.094 11.2031 116.078 11.0208 116.047 10.8438C116.026 10.6562 115.995 10.474 115.953 10.2969C115.818 9.66146 115.75 9.00521 115.75 8.32812C115.75 7.53646 115.802 6.75 115.906 5.96875C116.01 5.1875 116.062 4.40104 116.062 3.60938C116.062 3.33854 116.016 3.13021 115.922 2.98438C115.828 2.82812 115.646 2.70833 115.375 2.625C115.01 2.52083 114.63 2.4375 114.234 2.375C113.849 2.3125 113.464 2.28125 113.078 2.28125C112.786 2.28125 112.479 2.31771 112.156 2.39062C111.844 2.45312 111.552 2.5625 111.281 2.71875C111.021 2.86458 110.802 3.0625 110.625 3.3125C110.458 3.55208 110.375 3.84375 110.375 4.1875C110.375 4.36458 110.385 4.53646 110.406 4.70312C110.427 4.86979 110.438 5.04167 110.438 5.21875C110.438 5.38542 110.401 5.53125 110.328 5.65625C110.266 5.77083 110.234 5.88542 110.234 6C110.234 6.15625 110.276 6.30208 110.359 6.4375C110.443 6.57292 110.484 6.71875 110.484 6.875C110.484 6.97917 110.458 7.09375 110.406 7.21875C110.365 7.34375 110.312 7.47396 110.25 7.60938C110.188 7.73438 110.125 7.85938 110.062 7.98438C110.01 8.10938 109.969 8.22396 109.938 8.32812C109.885 8.48438 109.818 8.61979 109.734 8.73438C109.651 8.84896 109.521 8.90625 109.344 8.90625C109.198 8.90625 109.062 8.85938 108.938 8.76562C108.812 8.66146 108.75 8.53646 108.75 8.39062C108.75 8.27604 108.776 8.1875 108.828 8.125C108.891 8.05208 108.922 7.96875 108.922 7.875C108.922 7.77083 108.901 7.66667 108.859 7.5625C108.818 7.44792 108.766 7.33854 108.703 7.23438C108.651 7.11979 108.604 7.00521 108.562 6.89062C108.521 6.77604 108.5 6.66146 108.5 6.54688C108.5 6.40104 108.521 6.26042 108.562 6.125C108.615 5.98958 108.641 5.84896 108.641 5.70312C108.641 5.39062 108.589 5.08333 108.484 4.78125C108.391 4.47917 108.344 4.17188 108.344 3.85938C108.344 3.57812 108.375 3.24479 108.438 2.85938C108.5 2.47396 108.604 2.10417 108.75 1.75C108.906 1.39583 109.104 1.09896 109.344 0.859375C109.594 0.609375 109.906 0.484375 110.281 0.484375C110.542 0.484375 110.797 0.515625 111.047 0.578125C111.307 0.630208 111.573 0.65625 111.844 0.65625C112.146 0.65625 112.448 0.630208 112.75 0.578125C113.052 0.526042 113.354 0.5 113.656 0.5C113.865 0.5 114.057 0.536458 114.234 0.609375C114.422 0.671875 114.62 0.703125 114.828 0.703125C114.953 0.703125 115.057 0.677083 115.141 0.625C115.234 0.5625 115.339 0.53125 115.453 0.53125C115.578 0.53125 115.698 0.5625 115.812 0.625C115.938 0.677083 116.062 0.703125 116.188 0.703125C116.302 0.703125 116.406 0.6875 116.5 0.65625C116.604 0.625 116.708 0.609375 116.812 0.609375C116.969 0.609375 117.12 0.630208 117.266 0.671875C117.422 0.713542 117.573 0.734375 117.719 0.734375L119.609 0.5C119.891 0.479167 120.172 0.458333 120.453 0.4375C120.734 0.416667 121.021 0.40625 121.312 0.40625C121.812 0.40625 122.307 0.447917 122.797 0.53125C123.297 0.604167 123.797 0.697917 124.297 0.8125V0.828125C124.641 0.911458 124.885 1.08854 125.031 1.35938C125.177 1.63021 125.271 1.94271 125.312 2.29688C125.365 2.64062 125.385 2.99479 125.375 3.35938C125.365 3.72396 125.37 4.03646 125.391 4.29688C125.422 4.69271 125.458 5.09375 125.5 5.5C125.552 5.89583 125.578 6.29167 125.578 6.6875ZM141.562 2.3125C141.562 2.42708 141.521 2.53125 141.438 2.625C141.365 2.71875 141.271 2.8125 141.156 2.90625C141.052 2.98958 140.943 3.06771 140.828 3.14062C140.714 3.21354 140.62 3.28125 140.547 3.34375C140.37 3.48958 140.156 3.5625 139.906 3.5625C139.74 3.5625 139.578 3.54167 139.422 3.5C139.276 3.45833 139.12 3.4375 138.953 3.4375C138.88 3.4375 138.823 3.45312 138.781 3.48438C138.646 3.56771 138.516 3.61458 138.391 3.625C138.266 3.63542 138.13 3.64062 137.984 3.64062C137.901 3.64062 137.786 3.60417 137.641 3.53125C137.505 3.44792 137.432 3.36458 137.422 3.28125L137.531 3.17188C137.417 3.21354 137.339 3.26042 137.297 3.3125C137.255 3.36458 137.224 3.42188 137.203 3.48438C137.193 3.54688 137.182 3.61458 137.172 3.6875C137.161 3.76042 137.135 3.83333 137.094 3.90625C137.042 4.01042 136.958 4.07292 136.844 4.09375C136.74 4.11458 136.63 4.16146 136.516 4.23438C136.411 4.30729 136.318 4.44271 136.234 4.64062C136.151 4.82812 136.109 5.14583 136.109 5.59375C136.109 5.79167 136.12 5.98438 136.141 6.17188C136.161 6.35938 136.172 6.54688 136.172 6.73438C136.172 7.10938 136.141 7.48438 136.078 7.85938C136.016 8.22396 135.984 8.59896 135.984 8.98438C135.984 9.21354 135.948 9.43229 135.875 9.64062C135.812 9.84896 135.781 10.0677 135.781 10.2969C135.781 10.6198 135.917 10.8438 136.188 10.9688C136.115 11 136.057 11.0833 136.016 11.2188C135.974 11.3438 135.938 11.4896 135.906 11.6562C135.885 11.8125 135.87 11.9688 135.859 12.125C135.859 12.2708 135.859 12.375 135.859 12.4375C135.859 12.4792 135.859 12.5365 135.859 12.6094C135.859 12.6823 135.865 12.7604 135.875 12.8438C135.885 12.9167 135.896 12.9896 135.906 13.0625C135.917 13.125 135.938 13.1719 135.969 13.2031C136.052 13.2865 136.094 13.3906 136.094 13.5156C136.094 13.6406 136.073 13.7656 136.031 13.8906C135.99 14.0052 135.969 14.125 135.969 14.25C135.969 14.7604 136 15.2708 136.062 15.7812C136.135 16.2812 136.172 16.7865 136.172 17.2969C136.172 17.6302 136.135 17.9635 136.062 18.2969C136 18.6302 135.969 18.9635 135.969 19.2969C135.969 19.599 136.021 19.8385 136.125 20.0156C136.229 20.1927 136.37 20.3281 136.547 20.4219C136.724 20.5156 136.927 20.5781 137.156 20.6094C137.385 20.6406 137.625 20.6562 137.875 20.6562C138.271 20.6562 138.661 20.625 139.047 20.5625C139.443 20.4896 139.833 20.4531 140.219 20.4531C140.604 20.4531 140.901 20.5729 141.109 20.8125C141.328 21.0521 141.438 21.3594 141.438 21.7344C141.438 22.0156 141.391 22.2812 141.297 22.5312C141.214 22.7708 141.089 22.9792 140.922 23.1562C140.766 23.3438 140.573 23.4896 140.344 23.5938C140.115 23.6979 139.854 23.75 139.562 23.75C139.354 23.75 139.12 23.724 138.859 23.6719C138.443 23.5885 138.026 23.526 137.609 23.4844C137.193 23.4531 136.766 23.4375 136.328 23.4375C135.964 23.4375 135.599 23.4427 135.234 23.4531C134.87 23.474 134.505 23.4844 134.141 23.4844C133.703 23.4844 133.271 23.4792 132.844 23.4688C132.417 23.4583 131.984 23.4531 131.547 23.4531C131.391 23.4531 131.24 23.4271 131.094 23.375C130.948 23.3229 130.802 23.2969 130.656 23.2969C130.552 23.2969 130.432 23.3125 130.297 23.3438C130.161 23.3854 130.016 23.4271 129.859 23.4688C129.714 23.5104 129.557 23.5469 129.391 23.5781C129.224 23.6198 129.057 23.6406 128.891 23.6406C128.505 23.6406 128.172 23.5521 127.891 23.375C127.609 23.2083 127.469 22.9115 127.469 22.4844C127.469 22.349 127.484 22.2188 127.516 22.0938C127.526 22 127.573 21.8698 127.656 21.7031C127.75 21.5365 127.854 21.375 127.969 21.2188C128.094 21.0521 128.219 20.9115 128.344 20.7969C128.479 20.6823 128.599 20.625 128.703 20.625C128.786 20.625 128.865 20.6458 128.938 20.6875C129.021 20.7292 129.109 20.7812 129.203 20.8438C129.307 20.8958 129.427 20.9427 129.562 20.9844C129.698 21.026 129.859 21.0469 130.047 21.0469C130.422 21.0469 130.812 21.0104 131.219 20.9375C131.625 20.8646 131.995 20.7396 132.328 20.5625C132.672 20.375 132.953 20.1354 133.172 19.8438C133.391 19.5417 133.5 19.1667 133.5 18.7188C133.5 18.5521 133.49 18.3906 133.469 18.2344C133.448 18.0677 133.427 17.901 133.406 17.7344C133.344 17.1927 133.307 16.6458 133.297 16.0938C133.286 15.5417 133.281 14.9896 133.281 14.4375C133.281 14.0729 133.328 13.724 133.422 13.3906C133.516 13.0469 133.562 12.6927 133.562 12.3281C133.562 12.1198 133.526 11.9219 133.453 11.7344C133.38 11.5469 133.344 11.3542 133.344 11.1562C133.344 11.0625 133.354 10.9688 133.375 10.875C133.406 10.7812 133.422 10.6823 133.422 10.5781C133.422 10.349 133.396 10.1302 133.344 9.92188C133.302 9.70312 133.281 9.48438 133.281 9.26562C133.281 8.90104 133.318 8.53646 133.391 8.17188C133.474 7.80729 133.516 7.44271 133.516 7.07812C133.516 6.85938 133.49 6.64062 133.438 6.42188C133.385 6.20312 133.328 5.98958 133.266 5.78125C133.214 5.57292 133.161 5.35938 133.109 5.14062C133.057 4.92188 133.031 4.70312 133.031 4.48438C133.031 4.34896 133.047 4.20833 133.078 4.0625C133.016 3.91667 132.927 3.80208 132.812 3.71875C132.698 3.63542 132.573 3.55729 132.438 3.48438C132.302 3.41146 132.167 3.33854 132.031 3.26562C131.906 3.19271 131.807 3.08854 131.734 2.95312C131.651 2.96354 131.599 3.00521 131.578 3.07812C131.557 3.14062 131.542 3.21354 131.531 3.29688C131.521 3.36979 131.5 3.44271 131.469 3.51562C131.448 3.57812 131.391 3.61458 131.297 3.625C131.005 3.65625 130.708 3.68229 130.406 3.70312C130.115 3.72396 129.823 3.73438 129.531 3.73438C129.365 3.73438 129.156 3.72396 128.906 3.70312C128.667 3.68229 128.432 3.63542 128.203 3.5625C127.984 3.48958 127.797 3.38542 127.641 3.25C127.484 3.11458 127.406 2.92708 127.406 2.6875C127.406 2.54167 127.438 2.39062 127.5 2.23438C127.573 2.06771 127.656 1.90625 127.75 1.75C127.854 1.59375 127.964 1.44792 128.078 1.3125C128.203 1.16667 128.312 1.04167 128.406 0.9375C128.479 0.864583 128.589 0.802083 128.734 0.75C128.88 0.697917 129.042 0.661458 129.219 0.640625C129.406 0.619792 129.604 0.604167 129.812 0.59375C130.021 0.583333 130.229 0.578125 130.438 0.578125C130.698 0.578125 130.938 0.583333 131.156 0.59375C131.385 0.59375 131.573 0.59375 131.719 0.59375C131.979 0.59375 132.297 0.588542 132.672 0.578125C133.057 0.557292 133.422 0.53125 133.766 0.5C134.12 0.46875 134.422 0.4375 134.672 0.40625C134.932 0.364583 135.068 0.322917 135.078 0.28125C135.141 0.3125 135.214 0.364583 135.297 0.4375C135.391 0.5 135.484 0.5625 135.578 0.625C135.682 0.6875 135.781 0.744792 135.875 0.796875C135.969 0.848958 136.042 0.875 136.094 0.875C136.156 0.875 136.203 0.854167 136.234 0.8125C136.276 0.760417 136.307 0.703125 136.328 0.640625C136.359 0.578125 136.38 0.515625 136.391 0.453125C136.401 0.380208 136.406 0.322917 136.406 0.28125H136.516C136.745 0.28125 136.896 0.348958 136.969 0.484375C137.052 0.619792 137.094 0.78125 137.094 0.96875C137.094 1.01042 137.089 1.04688 137.078 1.07812C137.078 1.10938 137.078 1.14062 137.078 1.17188C137.182 1.15104 137.255 1.10417 137.297 1.03125C137.349 0.947917 137.391 0.864583 137.422 0.78125C137.453 0.697917 137.49 0.625 137.531 0.5625C137.583 0.5 137.667 0.46875 137.781 0.46875C137.823 0.46875 137.885 0.479167 137.969 0.5H138.078C138.307 0.6875 138.484 0.833333 138.609 0.9375C138.745 1.04167 138.849 1.11979 138.922 1.17188C138.995 1.21354 139.042 1.23958 139.062 1.25C139.083 1.26042 139.099 1.26562 139.109 1.26562C139.13 1.26562 139.167 1.27083 139.219 1.28125C139.281 1.29167 139.312 1.29167 139.312 1.28125C139.312 1.23958 139.286 1.20312 139.234 1.17188C139.193 1.13021 139.141 1.08854 139.078 1.04688C139.026 1.00521 138.974 0.958333 138.922 0.90625C138.88 0.854167 138.859 0.796875 138.859 0.734375C138.984 0.734375 139.083 0.71875 139.156 0.6875C139.229 0.645833 139.292 0.604167 139.344 0.5625C139.396 0.510417 139.448 0.463542 139.5 0.421875C139.562 0.380208 139.641 0.359375 139.734 0.359375C139.87 0.359375 139.974 0.380208 140.047 0.421875C140.12 0.463542 140.182 0.510417 140.234 0.5625C140.286 0.604167 140.333 0.645833 140.375 0.6875C140.417 0.729167 140.474 0.75 140.547 0.75C140.599 0.75 140.641 0.744792 140.672 0.734375C140.714 0.723958 140.76 0.71875 140.812 0.71875C140.885 0.71875 140.932 0.75 140.953 0.8125C140.974 0.875 140.99 0.932292 141 0.984375C141.031 1.14062 141.057 1.26042 141.078 1.34375C141.099 1.42708 141.125 1.5 141.156 1.5625C141.188 1.625 141.224 1.69271 141.266 1.76562C141.318 1.82812 141.385 1.92188 141.469 2.04688C141.531 2.13021 141.562 2.21875 141.562 2.3125ZM133.734 3.34375C133.797 3.26042 133.781 3.16667 133.688 3.0625C133.594 2.95833 133.49 2.90625 133.375 2.90625C133.25 2.90625 133.167 2.96875 133.125 3.09375C133.094 3.20833 133.078 3.3125 133.078 3.40625C133.099 3.47917 133.13 3.53646 133.172 3.57812C133.203 3.61979 133.24 3.65625 133.281 3.6875C133.323 3.71875 133.37 3.73438 133.422 3.73438C133.505 3.73438 133.568 3.71875 133.609 3.6875C133.651 3.64583 133.682 3.59896 133.703 3.54688C133.724 3.49479 133.734 3.42708 133.734 3.34375ZM163.266 21.875C163.203 22.0938 163.094 22.2708 162.938 22.4062C162.792 22.5312 162.62 22.6302 162.422 22.7031C162.224 22.776 162.01 22.8281 161.781 22.8594C161.562 22.8802 161.354 22.8906 161.156 22.8906C160.854 22.8906 160.557 22.875 160.266 22.8438C159.974 22.8021 159.682 22.7552 159.391 22.7031C159.234 22.6823 159.036 22.6667 158.797 22.6562C158.568 22.6458 158.339 22.6198 158.109 22.5781C157.88 22.5365 157.682 22.4635 157.516 22.3594C157.359 22.2448 157.281 22.0729 157.281 21.8438C157.281 21.5833 157.333 21.3958 157.438 21.2812C157.542 21.1562 157.672 21.0729 157.828 21.0312C157.984 20.9792 158.156 20.9479 158.344 20.9375C158.531 20.9271 158.703 20.8958 158.859 20.8438C159.016 20.7812 159.146 20.6875 159.25 20.5625C159.354 20.4271 159.406 20.2135 159.406 19.9219C159.406 19.7344 159.385 19.5469 159.344 19.3594C159.312 19.1719 159.276 18.9896 159.234 18.8125C159.193 18.625 159.151 18.4427 159.109 18.2656C159.078 18.0781 159.062 17.8906 159.062 17.7031C159.062 17.5781 159.099 17.4479 159.172 17.3125C159.255 17.1667 159.297 17.0052 159.297 16.8281C159.297 16.5052 159.271 16.2031 159.219 15.9219C159.167 15.6406 159.083 15.349 158.969 15.0469C158.896 14.849 158.859 14.6667 158.859 14.5C158.859 14.3438 158.891 14.1927 158.953 14.0469C159.026 13.901 159.062 13.7448 159.062 13.5781C159.062 13.3594 159.026 13.151 158.953 12.9531C158.88 12.7448 158.844 12.5312 158.844 12.3125C158.844 12.0208 158.875 11.7344 158.938 11.4531C159 11.1719 159.031 10.8854 159.031 10.5938C159.031 10.3958 159.01 10.1771 158.969 9.9375C158.927 9.69792 158.87 9.45833 158.797 9.21875C158.734 8.96875 158.667 8.72917 158.594 8.5C158.521 8.26042 158.453 8.04688 158.391 7.85938C158.182 7.95312 158.01 8.07812 157.875 8.23438C157.75 8.38021 157.646 8.54688 157.562 8.73438C157.49 8.92188 157.427 9.11979 157.375 9.32812C157.333 9.53646 157.297 9.73958 157.266 9.9375C157.193 10.3438 157.078 10.7396 156.922 11.125C156.776 11.5104 156.672 11.9062 156.609 12.3125C156.526 12.8125 156.474 13.3073 156.453 13.7969C156.443 14.2865 156.417 14.776 156.375 15.2656C156.344 15.7448 156.286 16.224 156.203 16.7031C156.12 17.1823 155.969 17.6615 155.75 18.1406C155.667 18.3177 155.615 18.4844 155.594 18.6406C155.573 18.7969 155.562 18.9583 155.562 19.125C155.562 19.2708 155.568 19.4167 155.578 19.5625C155.589 19.7083 155.594 19.8594 155.594 20.0156C155.594 20.3385 155.557 20.5833 155.484 20.75C155.422 20.9062 155.349 21.0365 155.266 21.1406C155.182 21.2448 155.099 21.349 155.016 21.4531C154.932 21.5469 154.87 21.6927 154.828 21.8906C154.797 22.0573 154.708 22.1875 154.562 22.2812C154.427 22.3646 154.266 22.4375 154.078 22.5C153.891 22.5521 153.703 22.599 153.516 22.6406C153.328 22.6719 153.172 22.7188 153.047 22.7812C152.932 22.5417 152.792 22.3177 152.625 22.1094C152.469 21.901 152.323 21.6823 152.188 21.4531C152.042 21.2135 151.948 20.9583 151.906 20.6875C151.875 20.4167 151.812 20.1458 151.719 19.875C151.677 19.75 151.625 19.6406 151.562 19.5469C151.51 19.4531 151.458 19.3594 151.406 19.2656C151.365 19.1615 151.323 19.0573 151.281 18.9531C151.25 18.849 151.234 18.724 151.234 18.5781C151.234 18.4635 151.24 18.3594 151.25 18.2656C151.26 18.1615 151.266 18.0521 151.266 17.9375C151.266 17.6875 151.224 17.4219 151.141 17.1406C150.974 16.6094 150.828 16.0885 150.703 15.5781C150.578 15.0677 150.49 14.5312 150.438 13.9688C150.385 13.4583 150.344 12.9427 150.312 12.4219C150.281 11.901 150.172 11.3958 149.984 10.9062C149.891 10.6667 149.781 10.4375 149.656 10.2188C149.531 10 149.427 9.77083 149.344 9.53125C149.323 9.47917 149.302 9.39583 149.281 9.28125C149.271 9.16667 149.25 9.04688 149.219 8.92188C149.198 8.79688 149.167 8.6875 149.125 8.59375C149.094 8.48958 149.057 8.43229 149.016 8.42188C148.964 8.46354 148.927 8.52604 148.906 8.60938C148.833 8.79688 148.776 8.92708 148.734 9C148.693 9.07292 148.651 9.13542 148.609 9.1875C148.578 9.22917 148.536 9.27604 148.484 9.32812C148.432 9.38021 148.359 9.47396 148.266 9.60938C148.182 9.72396 148.141 9.84896 148.141 9.98438C148.141 10.224 148.193 10.4583 148.297 10.6875C148.401 10.9062 148.453 11.1354 148.453 11.375C148.453 11.4896 148.432 11.6094 148.391 11.7344C148.349 11.849 148.328 11.9635 148.328 12.0781C148.328 12.3802 148.37 12.6823 148.453 12.9844C148.547 13.276 148.594 13.5729 148.594 13.875C148.594 14.1146 148.557 14.349 148.484 14.5781C148.411 14.7969 148.375 15.026 148.375 15.2656C148.375 15.5156 148.401 15.7656 148.453 16.0156C148.516 16.2552 148.547 16.5 148.547 16.75C148.547 16.9583 148.526 17.1615 148.484 17.3594C148.443 17.5469 148.396 17.7396 148.344 17.9375C148.302 18.1354 148.26 18.3333 148.219 18.5312C148.177 18.7292 148.156 18.9323 148.156 19.1406C148.156 19.5677 148.24 19.8698 148.406 20.0469C148.573 20.224 148.771 20.3594 149 20.4531C149.24 20.5469 149.484 20.6406 149.734 20.7344C149.984 20.8177 150.198 20.9792 150.375 21.2188C150.281 21.375 150.208 21.5469 150.156 21.7344C150.115 21.9115 150.047 22.0781 149.953 22.2344C149.87 22.3698 149.781 22.4635 149.688 22.5156C149.604 22.5677 149.516 22.6042 149.422 22.625C149.339 22.6354 149.245 22.651 149.141 22.6719C149.036 22.6823 148.927 22.7188 148.812 22.7812C148.698 22.8438 148.615 22.9062 148.562 22.9688C148.521 23.0208 148.479 23.0677 148.438 23.1094C148.396 23.1615 148.333 23.1979 148.25 23.2188C148.177 23.25 148.057 23.2656 147.891 23.2656C147.714 23.2656 147.536 23.2448 147.359 23.2031C147.182 23.1615 147.005 23.1406 146.828 23.1406C146.641 23.1406 146.458 23.1667 146.281 23.2188C146.104 23.2812 145.922 23.3125 145.734 23.3125C145.516 23.3125 145.297 23.2708 145.078 23.1875C144.859 23.1146 144.661 23.0104 144.484 22.875C144.318 22.7292 144.177 22.5625 144.062 22.375C143.958 22.1771 143.906 21.9583 143.906 21.7188C143.906 21.3646 143.979 21.0938 144.125 20.9062C144.271 20.7188 144.453 20.5729 144.672 20.4688C144.901 20.3542 145.146 20.2604 145.406 20.1875C145.667 20.1042 145.911 20 146.141 19.875C146.193 19.6979 146.224 19.5208 146.234 19.3438C146.245 19.1562 146.25 18.9688 146.25 18.7812C146.25 18.4792 146.234 18.1771 146.203 17.875C146.182 17.5729 146.172 17.2708 146.172 16.9688C146.172 16.7708 146.193 16.5781 146.234 16.3906C146.276 16.1927 146.297 15.9896 146.297 15.7812C146.297 15.6771 146.281 15.5781 146.25 15.4844C146.104 15.099 146.01 14.7292 145.969 14.375C145.938 14.0208 145.922 13.6354 145.922 13.2188C145.922 13.0417 145.943 12.8698 145.984 12.7031C146.036 12.5365 146.089 12.3698 146.141 12.2031C146.203 12.0365 146.255 11.8698 146.297 11.7031C146.349 11.5365 146.375 11.3646 146.375 11.1875C146.375 10.8646 146.354 10.5469 146.312 10.2344C146.271 9.92188 146.25 9.60417 146.25 9.28125C146.25 9.07292 146.271 8.86979 146.312 8.67188C146.354 8.47396 146.375 8.27083 146.375 8.0625C146.375 7.85417 146.333 7.65625 146.25 7.46875C146.167 7.27083 146.125 7.06771 146.125 6.85938C146.125 6.71354 146.161 6.58333 146.234 6.46875C146.318 6.35417 146.359 6.22396 146.359 6.07812C146.359 5.99479 146.318 5.91146 146.234 5.82812C146.151 5.74479 146.109 5.60938 146.109 5.42188C146.109 5.26562 146.115 5.10938 146.125 4.95312C146.146 4.79688 146.156 4.64062 146.156 4.48438C146.156 4.17188 146.104 3.92708 146 3.75C145.896 3.5625 145.766 3.42188 145.609 3.32812C145.464 3.22396 145.302 3.15104 145.125 3.10938C144.948 3.06771 144.781 3.02604 144.625 2.98438C144.479 2.93229 144.354 2.875 144.25 2.8125C144.146 2.75 144.094 2.64583 144.094 2.5C144.094 2.36458 144.167 2.22917 144.312 2.09375C144.469 1.94792 144.661 1.80729 144.891 1.67188C145.12 1.53646 145.37 1.40625 145.641 1.28125C145.911 1.14583 146.161 1.02604 146.391 0.921875C146.62 0.817708 146.812 0.729167 146.969 0.65625C147.135 0.583333 147.229 0.53125 147.25 0.5C147.292 0.572917 147.349 0.625 147.422 0.65625C147.495 0.677083 147.573 0.692708 147.656 0.703125C147.75 0.703125 147.839 0.703125 147.922 0.703125C148.016 0.703125 148.094 0.713542 148.156 0.734375C148.26 0.765625 148.339 0.807292 148.391 0.859375C148.443 0.911458 148.49 0.963542 148.531 1.01562C148.583 1.06771 148.651 1.11979 148.734 1.17188C148.818 1.22396 148.943 1.27083 149.109 1.3125C149.505 1.41667 149.802 1.56771 150 1.76562C150.208 1.95312 150.312 2.26562 150.312 2.70312C150.312 2.81771 150.302 2.93229 150.281 3.04688C150.26 3.15104 150.25 3.26042 150.25 3.375L150.641 4.48438C150.672 4.59896 150.703 4.71875 150.734 4.84375C150.776 4.95833 150.807 5.07292 150.828 5.1875C150.943 5.28125 151.031 5.42188 151.094 5.60938C151.156 5.79688 151.198 6 151.219 6.21875C151.25 6.42708 151.271 6.63542 151.281 6.84375C151.292 7.05208 151.307 7.22917 151.328 7.375C151.359 7.61458 151.411 7.84896 151.484 8.07812C151.568 8.29688 151.609 8.52604 151.609 8.76562C151.609 8.91146 151.583 9.05729 151.531 9.20312C151.49 9.34896 151.469 9.5 151.469 9.65625C151.469 9.92708 151.505 10.1927 151.578 10.4531C151.651 10.7135 151.734 10.974 151.828 11.2344C151.922 11.4844 152.005 11.7396 152.078 12C152.161 12.2604 152.208 12.526 152.219 12.7969C152.219 12.9219 152.229 13.1146 152.25 13.375C152.281 13.6354 152.318 13.9271 152.359 14.25C152.411 14.5625 152.469 14.8906 152.531 15.2344C152.604 15.5677 152.688 15.875 152.781 16.1562C152.885 16.4375 153 16.6667 153.125 16.8438C153.26 17.0208 153.406 17.1094 153.562 17.1094C153.75 17.1094 153.87 17.0573 153.922 16.9531C153.974 16.8385 154.005 16.7083 154.016 16.5625C154.026 16.4167 154.042 16.2708 154.062 16.125C154.083 15.9792 154.156 15.875 154.281 15.8125C154.385 15.75 154.474 15.6302 154.547 15.4531C154.63 15.2656 154.698 15.0625 154.75 14.8438C154.802 14.6146 154.839 14.3958 154.859 14.1875C154.891 13.9688 154.911 13.8021 154.922 13.6875C154.953 13.1458 154.969 12.5885 154.969 12.0156C154.969 11.4427 154.979 10.8698 155 10.2969C155.021 9.71354 155.068 9.14583 155.141 8.59375C155.214 8.03125 155.333 7.48958 155.5 6.96875C155.531 6.88542 155.573 6.80729 155.625 6.73438C155.677 6.66146 155.729 6.58854 155.781 6.51562C155.833 6.43229 155.875 6.35417 155.906 6.28125C155.948 6.19792 155.969 6.10938 155.969 6.01562C155.969 5.95312 155.953 5.90104 155.922 5.85938C155.891 5.80729 155.854 5.76562 155.812 5.73438C155.781 5.70312 155.75 5.67188 155.719 5.64062C155.688 5.60938 155.672 5.57292 155.672 5.53125C155.672 5.47917 155.688 5.44271 155.719 5.42188C155.75 5.39062 155.781 5.35938 155.812 5.32812C155.958 5.16146 156.047 4.93229 156.078 4.64062C156.12 4.33854 156.146 4.02083 156.156 3.6875C156.167 3.34375 156.177 3.01042 156.188 2.6875C156.208 2.35417 156.276 2.07292 156.391 1.84375C156.516 1.89583 156.635 1.92188 156.75 1.92188C156.896 1.92188 157.036 1.89583 157.172 1.84375C157.307 1.78125 157.438 1.71875 157.562 1.65625C157.698 1.59375 157.833 1.53646 157.969 1.48438C158.115 1.42188 158.266 1.39062 158.422 1.39062C158.474 1.39062 158.531 1.39583 158.594 1.40625C158.656 1.40625 158.714 1.40625 158.766 1.40625C158.974 1.40625 159.161 1.35938 159.328 1.26562C159.495 1.17188 159.667 1.125 159.844 1.125C159.917 1.125 159.969 1.14062 160 1.17188C160.031 1.20312 160.052 1.23438 160.062 1.26562C160.083 1.29688 160.104 1.32812 160.125 1.35938C160.146 1.39062 160.177 1.40625 160.219 1.40625C160.396 1.40625 160.573 1.38542 160.75 1.34375C160.938 1.30208 161.12 1.28125 161.297 1.28125C161.411 1.28125 161.505 1.29688 161.578 1.32812C161.651 1.34896 161.724 1.41146 161.797 1.51562C161.88 1.64062 161.995 1.72396 162.141 1.76562C162.286 1.79688 162.432 1.83333 162.578 1.875C162.724 1.90625 162.849 1.95833 162.953 2.03125C163.068 2.09375 163.125 2.21354 163.125 2.39062C163.125 2.75521 163.036 3.00521 162.859 3.14062C162.682 3.27604 162.474 3.36979 162.234 3.42188C162.005 3.46354 161.776 3.50521 161.547 3.54688C161.328 3.57812 161.172 3.67708 161.078 3.84375C160.974 4.02083 160.911 4.21354 160.891 4.42188C160.87 4.63021 160.818 4.83333 160.734 5.03125C160.703 5.11458 160.677 5.19271 160.656 5.26562C160.635 5.33854 160.625 5.41667 160.625 5.5C160.625 5.66667 160.646 5.82812 160.688 5.98438C160.729 6.14062 160.776 6.29688 160.828 6.45312C160.891 6.59896 160.948 6.75 161 6.90625C161.052 7.0625 161.089 7.21875 161.109 7.375C161.172 7.9375 161.203 8.5 161.203 9.0625C161.203 9.39583 161.182 9.72917 161.141 10.0625C161.109 10.3958 161.073 10.7292 161.031 11.0625C160.99 11.3958 160.948 11.7292 160.906 12.0625C160.875 12.3854 160.859 12.7083 160.859 13.0312C160.859 13.2812 160.781 13.4844 160.625 13.6406L160.609 14C160.609 14.3021 160.63 14.6042 160.672 14.9062C160.714 15.2083 160.76 15.5104 160.812 15.8125C160.865 16.1042 160.911 16.401 160.953 16.7031C160.995 17.0052 161.016 17.3073 161.016 17.6094C161.016 18.0156 160.958 18.4167 160.844 18.8125C160.729 19.2083 160.672 19.6094 160.672 20.0156C160.672 20.3177 160.734 20.5573 160.859 20.7344C160.984 20.9115 161.214 21 161.547 21C161.693 21 161.839 20.9948 161.984 20.9844C162.141 20.9635 162.292 20.9531 162.438 20.9531C162.583 20.9531 162.734 20.9688 162.891 21C163.047 21.0312 163.182 21.1042 163.297 21.2188C163.297 21.2604 163.302 21.3229 163.312 21.4062C163.333 21.4896 163.344 21.5729 163.344 21.6562C163.354 21.7292 163.354 21.7917 163.344 21.8438C163.333 21.8958 163.307 21.9062 163.266 21.875ZM148.828 6.46875C148.828 6.27083 148.797 6.07292 148.734 5.875C148.682 5.66667 148.562 5.51042 148.375 5.40625C148.375 5.5 148.37 5.59896 148.359 5.70312C148.359 5.79688 148.359 5.89062 148.359 5.98438C148.359 6.15104 148.38 6.31771 148.422 6.48438C148.474 6.64062 148.604 6.72396 148.812 6.73438C148.823 6.69271 148.828 6.65104 148.828 6.60938C148.828 6.56771 148.828 6.52083 148.828 6.46875ZM161.016 20.9531C161.016 20.8906 160.974 20.8385 160.891 20.7969C160.807 20.7552 160.74 20.7344 160.688 20.7344C160.656 20.7344 160.609 20.7396 160.547 20.75C160.495 20.7604 160.438 20.776 160.375 20.7969C160.323 20.8177 160.276 20.8438 160.234 20.875C160.193 20.9062 160.172 20.9427 160.172 20.9844C160.172 21.0469 160.219 21.0885 160.312 21.1094C160.417 21.1198 160.495 21.125 160.547 21.125C160.599 21.125 160.688 21.1146 160.812 21.0938C160.948 21.0729 161.016 21.026 161.016 20.9531ZM154.156 18.7656C154.115 18.7656 154.073 18.7656 154.031 18.7656C154 18.7552 153.964 18.75 153.922 18.75C153.745 18.75 153.589 18.7865 153.453 18.8594C153.328 18.9219 153.266 19.0573 153.266 19.2656V19.4375C153.307 19.4375 153.344 19.4427 153.375 19.4531C153.417 19.4531 153.458 19.4531 153.5 19.4531C153.677 19.4531 153.833 19.4219 153.969 19.3594C154.104 19.2865 154.172 19.1458 154.172 18.9375L154.156 18.7656ZM183.531 7.40625C183.531 7.44792 183.505 7.53125 183.453 7.65625C183.401 7.78125 183.339 7.91667 183.266 8.0625C183.203 8.20833 183.135 8.34375 183.062 8.46875C182.99 8.59375 182.932 8.67708 182.891 8.71875L182.922 8.73438C182.901 8.73438 182.88 8.73958 182.859 8.75H182.781C182.74 8.76042 182.693 8.76562 182.641 8.76562C182.599 8.76562 182.552 8.76562 182.5 8.76562L182.562 8.75C182.323 8.73958 182.104 8.69792 181.906 8.625C181.719 8.54167 181.562 8.39062 181.438 8.17188C181.417 8.13021 181.385 8.05729 181.344 7.95312C181.302 7.83854 181.26 7.71875 181.219 7.59375C181.177 7.46875 181.141 7.35417 181.109 7.25C181.089 7.13542 181.078 7.05208 181.078 7C181.078 6.91667 181.083 6.82812 181.094 6.73438C181.115 6.64062 181.125 6.55208 181.125 6.46875C181.125 6.14583 181.094 5.82812 181.031 5.51562C180.969 5.20312 180.938 4.88542 180.938 4.5625C180.938 4.35417 180.964 4.15104 181.016 3.95312C181.068 3.75521 181.161 3.57292 181.297 3.40625H181.219C181.094 3.40625 180.995 3.36979 180.922 3.29688C180.849 3.21354 180.729 3.17188 180.562 3.17188C180.167 3.17188 179.781 3.21875 179.406 3.3125C179.031 3.40625 178.635 3.45312 178.219 3.45312C178.052 3.45312 177.885 3.45312 177.719 3.45312C177.552 3.44271 177.38 3.4375 177.203 3.4375C176.88 3.4375 176.562 3.47396 176.25 3.54688C175.938 3.61979 175.635 3.65625 175.344 3.65625C175.312 3.65625 175.297 3.65104 175.297 3.64062C175.297 3.61979 175.333 3.59375 175.406 3.5625C175.479 3.52083 175.516 3.48958 175.516 3.46875C175.516 3.42708 175.479 3.40625 175.406 3.40625C175.344 3.40625 175.302 3.40625 175.281 3.40625C175.198 3.40625 175.125 3.44792 175.062 3.53125C175.01 3.61458 174.927 3.67188 174.812 3.70312C174.656 3.74479 174.49 3.76562 174.312 3.76562C174.135 3.76562 173.964 3.76562 173.797 3.76562C173.693 3.76562 173.542 3.76042 173.344 3.75C173.146 3.73958 172.948 3.71875 172.75 3.6875C172.552 3.64583 172.37 3.58854 172.203 3.51562C172.047 3.43229 171.958 3.31771 171.938 3.17188C171.823 3.20312 171.745 3.26042 171.703 3.34375C171.672 3.41667 171.641 3.49479 171.609 3.57812C171.589 3.66146 171.552 3.73958 171.5 3.8125C171.448 3.875 171.344 3.91146 171.188 3.92188C170.896 3.94271 170.708 4.03646 170.625 4.20312C170.542 4.36979 170.5 4.55729 170.5 4.76562C170.5 4.88021 170.505 4.99479 170.516 5.10938C170.526 5.22396 170.531 5.33854 170.531 5.45312C170.531 5.86979 170.521 6.28646 170.5 6.70312C170.49 7.10938 170.484 7.52083 170.484 7.9375C170.484 8.11458 170.484 8.35417 170.484 8.65625C170.495 8.94792 170.516 9.23958 170.547 9.53125C170.589 9.8125 170.646 10.0677 170.719 10.2969C170.792 10.5156 170.896 10.6406 171.031 10.6719C171.115 10.6927 171.203 10.7083 171.297 10.7188C171.391 10.7188 171.484 10.7188 171.578 10.7188C171.943 10.7188 172.297 10.6771 172.641 10.5938C172.995 10.5104 173.354 10.4688 173.719 10.4688C173.865 10.4688 174 10.4896 174.125 10.5312C174.26 10.5729 174.396 10.5938 174.531 10.5938C174.729 10.5938 174.88 10.5 174.984 10.3125C175.099 10.1146 175.177 9.89062 175.219 9.64062C175.271 9.38021 175.302 9.11979 175.312 8.85938C175.323 8.59896 175.328 8.40625 175.328 8.28125C175.328 8.02083 175.318 7.76562 175.297 7.51562C175.286 7.25521 175.281 6.99479 175.281 6.73438H175.375C175.635 6.73438 175.88 6.77604 176.109 6.85938C176.339 6.94271 176.578 6.98438 176.828 6.98438C176.932 6.98438 177.01 6.97917 177.062 6.96875C177.062 7.17708 177.099 7.38542 177.172 7.59375C177.245 7.80208 177.281 8.01562 177.281 8.23438C177.281 8.50521 177.135 8.67708 176.844 8.75C176.927 8.89583 176.995 9.04167 177.047 9.1875C177.099 9.33333 177.125 9.48438 177.125 9.64062C177.125 9.75521 177.115 9.86979 177.094 9.98438C177.073 10.0885 177.062 10.1979 177.062 10.3125C177.062 10.4167 177.094 10.5 177.156 10.5625C177.229 10.6146 177.266 10.6771 177.266 10.75C177.266 10.875 177.214 11.0312 177.109 11.2188C177.016 11.4062 176.969 11.599 176.969 11.7969C176.969 12.026 176.99 12.2656 177.031 12.5156C177.073 12.7656 177.12 13.026 177.172 13.2969C177.224 13.5677 177.271 13.8438 177.312 14.125C177.354 14.3958 177.375 14.6719 177.375 14.9531C177.375 15.1198 177.365 15.2917 177.344 15.4688C177.333 15.6458 177.297 15.8177 177.234 15.9844C177.182 16.1406 177.104 16.2865 177 16.4219C176.906 16.5573 176.781 16.6719 176.625 16.7656C176.427 16.7448 176.26 16.6875 176.125 16.5938C175.99 16.4896 175.875 16.3698 175.781 16.2344C175.698 16.0885 175.63 15.9323 175.578 15.7656C175.536 15.5885 175.505 15.4115 175.484 15.2344C175.443 14.9635 175.422 14.7135 175.422 14.4844C175.422 14.2552 175.37 14.0625 175.266 13.9062C175.172 13.7396 174.984 13.6094 174.703 13.5156C174.432 13.4219 174.005 13.375 173.422 13.375C173.255 13.375 173.016 13.3906 172.703 13.4219C172.401 13.4531 172.099 13.5104 171.797 13.5938C171.495 13.6667 171.229 13.776 171 13.9219C170.781 14.0677 170.672 14.25 170.672 14.4688C170.672 14.5938 170.682 14.7188 170.703 14.8438C170.734 14.9583 170.75 15.0781 170.75 15.2031C170.75 15.3073 170.745 15.4115 170.734 15.5156C170.724 15.6198 170.719 15.7292 170.719 15.8438C170.719 16.125 170.734 16.4062 170.766 16.6875C170.797 16.9583 170.812 17.2344 170.812 17.5156C170.812 17.8177 170.771 18.1146 170.688 18.4062C170.615 18.6979 170.578 18.9948 170.578 19.2969C170.578 19.6302 170.656 19.8958 170.812 20.0938C170.979 20.2812 171.188 20.4271 171.438 20.5312C171.688 20.625 171.958 20.6875 172.25 20.7188C172.542 20.75 172.812 20.7656 173.062 20.7656C173.562 20.7656 174.062 20.7344 174.562 20.6719C175.062 20.6094 175.562 20.5781 176.062 20.5781C176.375 20.5781 176.688 20.5938 177 20.625C177.312 20.6562 177.625 20.6719 177.938 20.6719C178.177 20.6719 178.443 20.6667 178.734 20.6562C179.026 20.6354 179.302 20.5833 179.562 20.5C179.833 20.4167 180.062 20.2969 180.25 20.1406C180.448 19.974 180.573 19.7396 180.625 19.4375C180.635 19.3542 180.661 19.2969 180.703 19.2656C180.755 19.224 180.807 19.1927 180.859 19.1719C180.922 19.1406 180.974 19.1094 181.016 19.0781C181.057 19.0469 181.078 18.9948 181.078 18.9219C181.078 18.8385 181.047 18.7448 180.984 18.6406C180.922 18.526 180.88 18.4219 180.859 18.3281C180.818 18.1302 180.792 17.9323 180.781 17.7344C180.781 17.526 180.781 17.3229 180.781 17.125C180.781 16.8125 180.828 16.5417 180.922 16.3125C181.026 16.0729 181.078 15.8125 181.078 15.5312C181.078 15.4479 181.073 15.3698 181.062 15.2969C181.062 15.224 181.062 15.1458 181.062 15.0625C181.062 15 181.109 14.9375 181.203 14.875C181.297 14.8125 181.406 14.7604 181.531 14.7188C181.656 14.6667 181.781 14.625 181.906 14.5938C182.031 14.5625 182.125 14.5469 182.188 14.5469C182.448 14.5469 182.661 14.6406 182.828 14.8281C182.995 15.0052 183.12 15.224 183.203 15.4844C183.297 15.7448 183.359 16.0156 183.391 16.2969C183.422 16.5781 183.438 16.8177 183.438 17.0156C183.438 17.3385 183.411 17.7031 183.359 18.1094C183.307 18.5156 183.234 18.9323 183.141 19.3594C183.057 19.7865 182.958 20.2031 182.844 20.6094C182.729 21.0052 182.615 21.3542 182.5 21.6562C182.438 21.8021 182.375 21.9115 182.312 21.9844C182.26 22.0573 182.198 22.1198 182.125 22.1719C182.062 22.2135 181.99 22.2604 181.906 22.3125C181.833 22.3542 181.75 22.4271 181.656 22.5312C181.573 22.625 181.411 22.6875 181.172 22.7188C180.943 22.75 180.698 22.7656 180.438 22.7656C180.24 22.7656 180.052 22.7604 179.875 22.75C179.698 22.7396 179.562 22.7344 179.469 22.7344C179.125 22.7344 178.844 22.776 178.625 22.8594C178.417 22.9427 178.219 22.9844 178.031 22.9844C177.896 22.9844 177.807 22.9583 177.766 22.9062C177.724 22.8438 177.661 22.8125 177.578 22.8125C177.505 22.8125 177.438 22.8438 177.375 22.9062C177.312 22.9688 177.219 23 177.094 23C176.969 23 176.839 23 176.703 23C176.578 22.9896 176.448 22.9844 176.312 22.9844C175.531 22.9844 174.755 23.0052 173.984 23.0469C173.214 23.099 172.438 23.1354 171.656 23.1562C171.125 23.1771 170.599 23.2396 170.078 23.3438C169.557 23.4479 169.031 23.5 168.5 23.5C168.312 23.5 168.099 23.4792 167.859 23.4375C167.62 23.4062 167.391 23.3438 167.172 23.25C166.964 23.1562 166.786 23.0312 166.641 22.875C166.495 22.7083 166.422 22.5052 166.422 22.2656C166.422 22.0365 166.505 21.8177 166.672 21.6094C166.839 21.401 167.036 21.2083 167.266 21.0312C167.505 20.8542 167.75 20.6927 168 20.5469C168.25 20.3906 168.453 20.2448 168.609 20.1094C168.599 20.026 168.594 19.9479 168.594 19.875C168.594 19.8021 168.594 19.7292 168.594 19.6562C168.594 19.5 168.594 19.3438 168.594 19.1875C168.604 19.0312 168.635 18.875 168.688 18.7188C168.708 18.625 168.76 18.5156 168.844 18.3906C168.938 18.2552 168.984 18.1406 168.984 18.0469C168.984 17.974 168.969 17.9062 168.938 17.8438C168.917 17.7812 168.896 17.7135 168.875 17.6406C168.76 17.3594 168.677 17.1094 168.625 16.8906C168.583 16.6719 168.562 16.4062 168.562 16.0938C168.562 15.9062 168.562 15.7448 168.562 15.6094C168.573 15.4635 168.583 15.3281 168.594 15.2031C168.615 15.0677 168.641 14.9323 168.672 14.7969C168.714 14.651 168.766 14.4896 168.828 14.3125C168.786 14.2396 168.74 14.1302 168.688 13.9844C168.635 13.8385 168.609 13.724 168.609 13.6406L168.828 11.4219C168.818 11.3906 168.812 11.3385 168.812 11.2656C168.812 11.1719 168.828 11.0781 168.859 10.9844C168.891 10.8906 168.906 10.7917 168.906 10.6875C168.906 10.4479 168.865 10.2135 168.781 9.98438C168.698 9.74479 168.656 9.50521 168.656 9.26562C168.656 9.18229 168.677 9.08333 168.719 8.96875C168.76 8.85417 168.802 8.72917 168.844 8.59375C168.896 8.45833 168.943 8.3125 168.984 8.15625C169.026 7.98958 169.047 7.8125 169.047 7.625C169.047 7.47917 169.01 7.35417 168.938 7.25C168.875 7.14583 168.844 7.02604 168.844 6.89062C168.844 6.76562 168.875 6.64062 168.938 6.51562C169 6.39062 169.031 6.25521 169.031 6.10938C169.031 5.90104 168.99 5.70312 168.906 5.51562C168.833 5.31771 168.755 5.13021 168.672 4.95312C168.547 4.69271 168.448 4.48438 168.375 4.32812C168.312 4.16146 168.234 4.03125 168.141 3.9375C168.047 3.83333 167.917 3.76042 167.75 3.71875C167.594 3.66667 167.365 3.63021 167.062 3.60938C166.917 3.59896 166.776 3.55729 166.641 3.48438C166.516 3.40104 166.401 3.29688 166.297 3.17188C166.203 3.04688 166.125 2.91146 166.062 2.76562C166 2.61979 165.969 2.47917 165.969 2.34375C165.969 2.15625 166.052 2 166.219 1.875C166.385 1.73958 166.599 1.63542 166.859 1.5625C167.12 1.47917 167.411 1.41667 167.734 1.375C168.057 1.32292 168.37 1.28646 168.672 1.26562C168.984 1.23438 169.266 1.21354 169.516 1.20312C169.776 1.19271 169.974 1.17708 170.109 1.15625C170.318 1.125 170.521 1.10417 170.719 1.09375C170.917 1.08333 171.12 1.07812 171.328 1.07812C171.734 1.07812 172.141 1.09375 172.547 1.125C172.964 1.14583 173.375 1.15625 173.781 1.15625C174.219 1.15625 174.646 1.11458 175.062 1.03125C175.49 0.947917 175.922 0.90625 176.359 0.90625C176.755 0.90625 177.146 0.953125 177.531 1.04688C177.917 1.13021 178.297 1.17188 178.672 1.17188C179.036 1.17188 179.396 1.13021 179.75 1.04688C180.104 0.953125 180.464 0.90625 180.828 0.90625C180.984 0.90625 181.141 0.921875 181.297 0.953125C181.526 1.20312 181.734 1.41146 181.922 1.57812C182.12 1.74479 182.286 1.91667 182.422 2.09375C182.568 2.26042 182.682 2.45833 182.766 2.6875C182.859 2.91667 182.922 3.21875 182.953 3.59375C182.964 3.72917 182.969 3.89583 182.969 4.09375C182.969 4.28125 182.974 4.46875 182.984 4.65625C182.995 4.83333 183.021 4.99479 183.062 5.14062C183.115 5.28646 183.193 5.375 183.297 5.40625C183.297 5.55208 183.224 5.625 183.078 5.625C183.089 5.77083 183.12 5.92188 183.172 6.07812C183.224 6.22396 183.276 6.375 183.328 6.53125C183.38 6.67708 183.427 6.82812 183.469 6.98438C183.51 7.13021 183.531 7.27083 183.531 7.40625ZM170 11.25C169.938 11.25 169.88 11.2604 169.828 11.2812C169.776 11.3021 169.74 11.349 169.719 11.4219C170.115 11.651 170.427 11.8698 170.656 12.0781C170.896 12.276 171.078 12.4375 171.203 12.5625C171.339 12.6875 171.438 12.7604 171.5 12.7812C171.562 12.7917 171.625 12.724 171.688 12.5781C171.771 12.3906 171.755 12.2135 171.641 12.0469C171.536 11.8802 171.385 11.7396 171.188 11.625C171 11.5104 170.792 11.4219 170.562 11.3594C170.344 11.2865 170.156 11.25 170 11.25Z" fill="#3D3D3D"/>
</svg>
